<svg width="255" height="271" viewBox="0 0 255 271" fill="none" xmlns="http://www.w3.org/2000/svg">
<path d="M84.354 266.41C102.543 275.515 124.682 268.146 133.795 249.942L67.9094 216.961C58.7967 235.165 66.1651 257.305 84.354 266.41ZM233.867 244.837C229.269 229.166 218.704 203.765 245.075 151.083C265.105 111.069 253.083 64.994 219.187 38.1986L224.559 27.4666C229.115 18.367 225.434 7.29593 216.34 2.74345C207.245 -1.80903 196.177 1.87907 191.622 10.9786L186.25 21.7107C144.486 10.6323 100.396 28.6196 80.366 68.633C53.9946 121.315 27.3277 128.078 12.0268 133.789C7.27427 135.564 3.91693 138.849 1.9964 142.749C-2.17462 151.223 0.431641 162.575 10.2779 167.504L207.925 266.441C217.771 271.37 228.425 266.657 232.704 258.237C234.677 254.362 235.297 249.701 233.867 244.837Z" fill="#7B6835"/>
</svg>
