<svg width="395" height="321" viewBox="0 0 395 321" fill="none" xmlns="http://www.w3.org/2000/svg">
<path d="M2.88326 145.453L14.7482 165.035C19.6632 173.147 30.223 175.739 38.3341 170.824L43.2299 167.857L102.557 265.771L97.6607 268.738C89.5489 273.652 86.9574 284.212 91.8725 292.323L103.737 311.906C108.652 320.018 119.212 322.61 127.323 317.695L235.029 252.436C243.14 247.521 245.732 236.961 240.817 228.85L228.952 209.268C224.037 201.156 213.477 198.564 205.366 203.48L200.47 206.446L179.706 172.176L249.842 129.681L252.808 134.577C259.361 145.392 273.441 148.847 284.256 142.294L383.561 82.1244C394.376 75.5714 397.831 61.4919 391.278 50.6764L367.548 11.5107C360.995 0.695277 346.915 -2.75995 336.1 3.79314L236.794 63.9622C225.979 70.5153 222.524 84.5948 229.077 95.4103L232.043 100.306L161.908 142.801L141.144 108.531L146.039 105.565C154.151 100.65 156.743 90.0902 151.828 81.9791L139.963 62.3967C135.048 54.2849 124.488 51.6935 116.377 56.6086L8.67141 121.867C0.560492 126.782 -2.03097 137.341 2.88326 145.453Z" fill="#454545"/>
</svg>
