<svg width="176" height="184" viewBox="0 0 176 184" fill="none" xmlns="http://www.w3.org/2000/svg">
<path d="M173.591 113.911L157.815 104.802C159.407 96.2101 159.407 87.3964 157.815 78.8049L173.591 69.695C175.405 68.6581 176.22 66.5102 175.628 64.5105C171.517 51.327 164.518 39.4026 155.371 29.478C153.964 27.9597 151.668 27.5894 149.89 28.6263L134.114 37.7362C127.486 32.0332 119.857 27.6264 111.599 24.7379V6.55505C111.599 4.48125 110.155 2.66667 108.118 2.22228C94.527 -0.814362 80.6029 -0.666233 67.6787 2.22228C65.6419 2.66667 64.1976 4.48125 64.1976 6.55505V24.7749C55.9765 27.7005 48.3478 32.1073 41.682 37.7732L25.9433 28.6633C24.1288 27.6264 21.8698 27.9597 20.4626 29.515C11.3156 39.4026 4.31652 51.327 0.205943 64.5475C-0.423604 66.5473 0.428137 68.6951 2.24272 69.732L18.0184 78.842C16.4261 87.4334 16.4261 96.2471 18.0184 104.839L2.24272 113.948C0.428137 114.985 -0.386572 117.133 0.205943 119.133C4.31652 132.316 11.3156 144.241 20.4626 154.165C21.8698 155.684 24.1658 156.054 25.9433 155.017L41.7191 145.907C48.3478 151.61 55.9765 156.017 64.2347 158.906V177.125C64.2347 179.199 65.6789 181.014 67.7157 181.458C81.3065 184.495 95.2306 184.347 108.155 181.458C110.192 181.014 111.636 179.199 111.636 177.125V158.906C119.857 155.98 127.486 151.573 134.151 145.907L149.927 155.017C151.742 156.054 154.001 155.721 155.408 154.165C164.555 144.278 171.554 132.354 175.665 119.133C176.22 117.096 175.405 114.948 173.591 113.911ZM87.8982 121.429C71.567 121.429 58.2725 108.134 58.2725 91.8032C58.2725 75.472 71.567 62.1775 87.8982 62.1775C104.229 62.1775 117.524 75.472 117.524 91.8032C117.524 108.134 104.229 121.429 87.8982 121.429Z" fill="#444444"/>
</svg>
