<svg width="1029" height="591" viewBox="0 0 1029 591" fill="none" xmlns="http://www.w3.org/2000/svg">
<path d="M322.354 528.41C340.543 537.515 362.682 530.146 371.795 511.942L305.909 478.961C296.797 497.165 304.165 519.305 322.354 528.41ZM471.867 506.837C467.269 491.166 456.704 465.765 483.075 413.083C503.105 373.069 491.083 326.994 457.187 300.199L462.559 289.467C467.115 280.367 463.434 269.296 454.34 264.743C445.245 260.191 434.177 263.879 429.622 272.979L424.25 283.711C382.486 272.632 338.396 290.62 318.366 330.633C291.995 383.315 265.328 390.078 250.027 395.789C245.274 397.564 241.917 400.849 239.996 404.749C235.825 413.223 238.432 424.575 248.278 429.504L445.925 528.441C455.771 533.37 466.425 528.657 470.704 520.237C472.677 516.362 473.297 511.701 471.867 506.837Z" fill="#7B6835"/>
<path d="M1006.29 445.141L973.181 426.096C976.523 408.135 976.523 389.709 973.181 371.748L1006.29 352.703C1010.09 350.535 1011.8 346.045 1010.56 341.864C1001.93 314.303 987.247 289.374 968.052 268.626C965.099 265.452 960.28 264.677 956.55 266.845L923.444 285.89C909.534 273.968 893.525 264.755 876.194 258.716V220.703C876.194 216.368 873.164 212.574 868.889 211.645C840.368 205.297 811.148 205.607 784.026 211.645C779.752 212.574 776.721 216.368 776.721 220.703V258.794C759.469 264.91 743.46 274.123 729.471 285.968L696.443 266.923C692.635 264.755 687.895 265.452 684.941 268.703C665.746 289.374 651.058 314.303 642.432 341.942C641.111 346.122 642.898 350.613 646.706 352.78L679.812 371.825C676.471 389.787 676.471 408.212 679.812 426.174L646.706 445.219C642.898 447.386 641.189 451.877 642.432 456.057C651.058 483.619 665.746 508.547 684.941 529.296C687.895 532.47 692.713 533.244 696.443 531.076L729.549 512.031C743.46 523.954 759.469 533.167 776.799 539.205V577.296C776.799 581.631 779.83 585.425 784.104 586.354C812.625 592.702 841.845 592.392 868.967 586.354C873.241 585.425 876.272 581.631 876.272 577.296V539.205C893.525 533.089 909.534 523.876 923.522 512.031L956.628 531.076C960.436 533.244 965.176 532.547 968.129 529.296C987.325 508.625 1002.01 483.696 1010.64 456.057C1011.8 451.799 1010.09 447.309 1006.29 445.141ZM826.458 460.857C792.186 460.857 764.287 433.064 764.287 398.922C764.287 364.78 792.186 336.987 826.458 336.987C860.729 336.987 888.629 364.78 888.629 398.922C888.629 433.064 860.729 460.857 826.458 460.857Z" fill="#444444"/>
<path d="M743.513 200.745L719.02 186.61C721.492 173.28 721.492 159.604 719.02 146.274L743.513 132.139C746.33 130.53 747.595 127.197 746.675 124.094C740.293 103.639 729.427 85.1369 715.225 69.7378C713.04 67.3819 709.476 66.8073 706.716 68.4162L682.223 82.5512C671.931 73.7025 660.087 66.8648 647.266 62.383V34.1704C647.266 30.9526 645.023 28.1371 641.861 27.4476C620.76 22.7359 599.142 22.9658 579.076 27.4476C575.914 28.1371 573.672 30.9526 573.672 34.1704V62.4404C560.908 66.9797 549.064 73.8174 538.715 82.6087L514.279 68.4737C511.462 66.8648 507.955 67.3819 505.77 69.7952C491.568 85.1369 480.702 103.639 474.32 124.152C473.342 127.255 474.665 130.587 477.482 132.196L501.975 146.331C499.503 159.662 499.503 173.337 501.975 186.668L477.482 200.803C474.665 202.412 473.4 205.744 474.32 208.847C480.702 229.303 491.568 247.805 505.77 263.204C507.955 265.56 511.519 266.134 514.279 264.525L538.772 250.39C549.064 259.239 560.908 266.077 573.729 270.559V298.829C573.729 302.046 575.972 304.862 579.134 305.551C600.235 310.263 621.853 310.033 641.919 305.551C645.081 304.862 647.323 302.046 647.323 298.829V270.559C660.087 266.019 671.931 259.182 682.28 250.39L706.773 264.525C709.591 266.134 713.098 265.617 715.283 263.204C729.484 247.862 740.351 229.36 746.733 208.847C747.595 205.687 746.33 202.354 743.513 200.745ZM610.469 212.41C585.113 212.41 564.472 191.782 564.472 166.442C564.472 141.102 585.113 120.474 610.469 120.474C635.824 120.474 656.465 141.102 656.465 166.442C656.465 191.782 635.824 212.41 610.469 212.41Z" fill="#797979"/>
<path d="M493.494 144.146L469.633 139.577C467.909 128.084 464.08 117.007 458.338 106.903L474.283 88.5737C476.122 86.4791 476.216 83.4243 474.6 81.1694C463.686 66.3929 449.675 54.4585 433.823 45.9743C431.388 44.6798 428.331 45.2157 426.539 47.2941L410.594 65.6239C399.754 61.3472 388.215 59.1357 376.541 59.1069L368.641 36.2544C367.74 33.648 365.13 31.9973 362.367 32.327C343.902 34.4378 326.399 40.6967 311.349 49.9636C308.972 51.4104 307.939 54.3209 308.84 56.9273L316.756 79.8264C307.655 87.0887 299.945 95.9544 293.998 105.983L270.184 101.397C267.444 100.885 264.739 102.289 263.639 104.858C256.395 121.274 252.746 139.313 253.304 157.722C253.379 160.51 255.386 162.838 258.126 163.35L281.987 167.919C283.711 179.411 287.54 190.488 293.282 200.592L277.337 218.922C275.498 221.016 275.404 224.071 277.02 226.326C287.934 241.103 301.945 253.037 317.796 261.521C320.231 262.816 323.289 262.28 325.081 260.201L341.026 241.872C351.866 246.148 363.405 248.36 375.079 248.388L382.995 271.288C383.896 273.894 386.506 275.545 389.269 275.215C407.734 273.104 425.237 266.845 440.287 257.578C442.664 256.131 443.697 253.221 442.796 250.615L434.88 227.716C443.981 220.453 451.691 211.588 457.638 201.559L481.499 206.129C484.239 206.641 486.944 205.236 488.044 202.668C495.287 186.252 498.937 168.212 498.379 149.804C498.195 147.002 496.234 144.658 493.494 144.146ZM388.65 190.967C368.047 198.089 345.498 187.178 338.403 166.653C331.307 146.128 342.303 123.621 362.907 116.498C383.51 109.376 406.059 120.287 413.154 140.812C420.25 161.337 409.254 183.844 388.65 190.967Z" fill="#2E2E2E"/>
<path d="M68.8833 224.453L80.7482 244.035C85.6632 252.147 96.223 254.739 104.334 249.824L109.23 246.857L168.557 344.771L163.661 347.738C155.549 352.652 152.957 363.212 157.873 371.323L169.737 390.906C174.652 399.018 185.212 401.61 193.323 396.695L301.029 331.436C309.14 326.521 311.732 315.961 306.817 307.85L294.952 288.268C290.037 280.156 279.477 277.564 271.366 282.48L266.47 285.446L245.706 251.176L315.842 208.681L318.808 213.577C325.361 224.392 339.441 227.847 350.256 221.294L449.561 161.124C460.376 154.571 463.831 140.492 457.278 129.676L433.548 90.5107C426.995 79.6953 412.915 76.24 402.1 82.7931L302.794 142.962C291.979 149.515 288.524 163.595 295.077 174.41L298.043 179.306L227.908 221.801L207.144 187.531L212.039 184.565C220.151 179.65 222.743 169.09 217.828 160.979L205.963 141.397C201.048 133.285 190.488 130.693 182.377 135.609L74.6714 200.867C66.5605 205.782 63.969 216.341 68.8833 224.453Z" fill="#454545"/>
<path d="M78.6989 361.636C78.0085 355.806 75.2088 351.281 70.2997 348.059C65.3906 344.838 59.3693 343.227 52.2358 343.227C47.0199 343.227 42.456 344.071 38.544 345.758C34.6705 347.446 31.6406 349.766 29.4545 352.719C27.3068 355.672 26.233 359.028 26.233 362.786C26.233 365.931 26.9808 368.635 28.4766 370.898C30.0107 373.122 31.9666 374.982 34.3445 376.478C36.7223 377.936 39.2152 379.144 41.8232 380.102C44.4311 381.023 46.8281 381.771 49.0142 382.346L60.9801 385.568C64.0483 386.373 67.4616 387.485 71.2202 388.904C75.017 390.323 78.6413 392.26 82.093 394.715C85.5831 397.131 88.4595 400.237 90.7223 404.034C92.9851 407.831 94.1165 412.491 94.1165 418.014C94.1165 424.38 92.4482 430.133 89.1115 435.272C85.8132 440.411 80.9808 444.496 74.6143 447.526C68.2862 450.556 60.5966 452.071 51.5455 452.071C43.108 452.071 35.8018 450.709 29.6271 447.986C23.4908 445.263 18.6584 441.466 15.13 436.595C11.6399 431.725 9.66477 426.068 9.20455 419.625H23.9318C24.3153 424.073 25.8111 427.755 28.419 430.67C31.0653 433.546 34.402 435.694 38.429 437.113C42.4943 438.494 46.8665 439.184 51.5455 439.184C56.9915 439.184 61.8814 438.302 66.2152 436.538C70.549 434.735 73.9815 432.242 76.5128 429.059C79.044 425.838 80.3097 422.079 80.3097 417.784C80.3097 413.872 79.2166 410.688 77.0305 408.234C74.8445 405.779 71.968 403.785 68.4013 402.251C64.8345 400.717 60.9801 399.375 56.8381 398.224L42.3409 394.082C33.1364 391.436 25.8494 387.658 20.4801 382.749C15.1108 377.84 12.4261 371.416 12.4261 363.477C12.4261 356.88 14.2095 351.127 17.7763 346.218C21.3814 341.271 26.2138 337.436 32.2734 334.713C38.3714 331.951 45.179 330.571 52.696 330.571C60.2898 330.571 67.0398 331.932 72.946 334.655C78.8523 337.34 83.5313 341.022 86.983 345.7C90.473 350.379 92.3139 355.691 92.5057 361.636H78.6989ZM111.131 344.838V332.181H199.494V344.838H162.446V450H148.179V344.838H111.131ZM316.018 391.09C316.018 403.517 313.774 414.255 309.287 423.306C304.8 432.357 298.644 439.338 290.82 444.247C282.997 449.156 274.061 451.61 264.012 451.61C253.964 451.61 245.028 449.156 237.204 444.247C229.38 439.338 223.225 432.357 218.737 423.306C214.25 414.255 212.007 403.517 212.007 391.09C212.007 378.664 214.25 367.926 218.737 358.875C223.225 349.823 229.38 342.843 237.204 337.934C245.028 333.025 253.964 330.571 264.012 330.571C274.061 330.571 282.997 333.025 290.82 337.934C298.644 342.843 304.8 349.823 309.287 358.875C313.774 367.926 316.018 378.664 316.018 391.09ZM302.211 391.09C302.211 380.889 300.504 372.279 297.091 365.26C293.716 358.242 289.133 352.93 283.342 349.325C277.589 345.72 271.146 343.917 264.012 343.917C256.879 343.917 250.416 345.72 244.625 349.325C238.872 352.93 234.289 358.242 230.876 365.26C227.501 372.279 225.813 380.889 225.813 391.09C225.813 401.292 227.501 409.902 230.876 416.921C234.289 423.939 238.872 429.251 244.625 432.856C250.416 436.461 256.879 438.264 264.012 438.264C271.146 438.264 277.589 436.461 283.342 432.856C289.133 429.251 293.716 423.939 297.091 416.921C300.504 409.902 302.211 401.292 302.211 391.09ZM340.007 450V332.181H379.817C389.021 332.181 396.577 333.754 402.483 336.899C408.389 340.005 412.762 344.281 415.6 349.727C418.438 355.174 419.857 361.367 419.857 368.309C419.857 375.251 418.438 381.406 415.6 386.776C412.762 392.145 408.409 396.364 402.541 399.432C396.673 402.462 389.175 403.977 380.047 403.977H347.831V391.09H379.587C385.877 391.09 390.939 390.17 394.774 388.329C398.648 386.488 401.448 383.88 403.173 380.505C404.938 377.092 405.82 373.026 405.82 368.309C405.82 363.592 404.938 359.469 403.173 355.941C401.409 352.412 398.59 349.689 394.717 347.772C390.843 345.816 385.723 344.838 379.357 344.838H354.274V450H340.007ZM395.465 397.073L424.459 450H407.891L379.357 397.073H395.465ZM429.55 332.181H445.888L478.564 387.178H479.945L512.621 332.181H528.959L486.388 401.446V450H472.121V401.446L429.55 332.181ZM538.815 450L568.623 331.74H594.705L624.675 450H603.939L597.459 421.326H566.031L559.551 450H538.815ZM569.757 404.802H593.733L586.605 373.05C585.417 367.758 584.391 363.006 583.527 358.794C582.663 354.474 582.069 351.342 581.745 349.398C581.421 351.342 580.827 354.474 579.963 358.794C579.207 363.006 578.181 367.704 576.885 372.888L569.757 404.802ZM641.945 450V331.74H666.731L699.617 427.32C699.293 423.864 698.915 419.814 698.483 415.17C698.159 410.418 697.889 405.612 697.673 400.752C697.457 395.784 697.349 391.464 697.349 387.792V331.74H715.817V450H691.031L658.469 354.42C658.685 357.552 658.955 361.332 659.279 365.76C659.603 370.188 659.873 374.724 660.089 379.368C660.305 384.012 660.413 388.278 660.413 392.166V450H641.945ZM762.896 450L733.088 331.74H754.148L771.968 408.852C772.94 412.632 773.858 416.682 774.722 421.002C775.586 425.322 776.234 428.832 776.666 431.532C777.098 428.832 777.692 425.322 778.448 421.002C779.204 416.682 780.014 412.578 780.878 408.69L798.536 331.74H818.948L789.14 450H762.896ZM839.135 450V432.18H862.949V349.56H839.135V331.74H907.175V349.56H883.361V432.18H907.175V450H839.135ZM938.377 450V331.74H958.627V431.208H1008.85V450H938.377Z" fill="white"/>
</svg>
