<svg width="640" height="640" viewBox="0 0 640 640" fill="none" xmlns="http://www.w3.org/2000/svg">
<path d="M602.695 391.991L550.443 361.837C555.717 333.398 555.717 304.224 550.443 275.785L602.695 245.631C608.705 242.198 611.403 235.089 609.441 228.469C595.826 184.831 572.644 145.36 542.347 112.509C537.686 107.483 530.082 106.257 524.194 109.689L471.942 139.844C449.987 120.967 424.72 106.38 397.367 96.8183V36.6314C397.367 29.7669 392.583 23.7605 385.837 22.2896C340.822 12.238 294.703 12.7283 251.896 22.2896C245.15 23.7605 240.366 29.7669 240.366 36.6314V96.9409C213.137 106.625 187.869 121.212 165.791 139.967L113.662 109.812C107.652 106.38 100.17 107.483 95.5088 112.631C65.2126 145.36 42.0304 184.831 28.4155 228.592C26.3304 235.211 29.1515 242.321 35.1616 245.753L87.4134 275.908C82.1392 304.347 82.1392 333.521 87.4134 361.959L35.1616 392.114C29.1515 395.546 26.453 402.656 28.4155 409.275C42.0304 452.914 65.2126 492.385 95.5088 525.236C100.17 530.262 107.774 531.488 113.662 528.055L165.914 497.901C187.869 516.778 213.137 531.365 240.489 540.926V601.236C240.489 608.1 245.273 614.107 252.019 615.578C297.034 625.629 343.153 625.139 385.96 615.578C392.706 614.107 397.49 608.1 397.49 601.236V540.926C424.72 531.242 449.987 516.655 472.065 497.901L524.317 528.055C530.327 531.488 537.809 530.384 542.47 525.236C572.766 492.507 595.948 453.036 609.563 409.275C611.403 402.533 608.705 395.424 602.695 391.991ZM318.867 416.875C264.775 416.875 220.741 372.869 220.741 318.811C220.741 264.753 264.775 220.747 318.867 220.747C372.958 220.747 416.992 264.753 416.992 318.811C416.992 372.869 372.958 416.875 318.867 416.875Z" fill="#797979"/>
<path d="M631.214 249.203L602.93 220.919C591.214 209.203 572.219 209.203 560.504 220.919L553.433 227.99L412.01 86.5694L419.081 79.4982C430.797 67.782 430.797 48.787 419.081 37.0721L390.797 8.78716C379.081 -2.92905 360.086 -2.92905 348.371 8.78716L192.807 164.35C181.091 176.067 181.091 195.062 192.807 206.777L221.091 235.06C232.807 246.776 251.802 246.776 263.517 235.06L270.589 227.989L320.086 277.486L218.786 378.786L211.715 371.715C196.094 356.094 170.767 356.094 155.146 371.715L11.7159 515.147C-3.90531 530.768 -3.90531 556.094 11.7159 571.716L68.2847 628.284C83.906 643.905 109.232 643.905 124.853 628.284L268.285 484.853C283.906 469.232 283.906 443.906 268.285 428.285L261.214 421.214L362.514 319.914L412.011 369.411L404.94 376.482C393.224 388.199 393.224 407.194 404.94 418.909L433.224 447.192C444.94 458.908 463.935 458.908 475.65 447.192L631.214 291.629C642.929 279.914 642.929 260.919 631.214 249.203Z" fill="#454545"/>
</svg>
